<?xml version="1.0" encoding="UTF-8" standalone="no"?>
<!-- Generator: Adobe Illustrator 28.0.0, SVG Export Plug-In . SVG Version: 6.00 Build 0)  -->

<svg
   version="1.1"
   x="0px"
   y="0px"
   viewBox="0 0 667.19135 951"
   xml:space="preserve"
   id="svg30"
   sodipodi:docname="nais-v2-ssb.svg"
   inkscape:version="1.4 (e7c3feb1, 2024-10-09)"
   width="667.19135"
   height="951"
   xmlns:inkscape="http://www.inkscape.org/namespaces/inkscape"
   xmlns:sodipodi="http://sodipodi.sourceforge.net/DTD/sodipodi-0.dtd"
   xmlns:xlink="http://www.w3.org/1999/xlink"
   xmlns="http://www.w3.org/2000/svg"
   xmlns:svg="http://www.w3.org/2000/svg"><defs
   id="defs34" /><sodipodi:namedview
   id="namedview32"
   pagecolor="#ffffff"
   bordercolor="#666666"
   borderopacity="1.0"
   inkscape:showpageshadow="2"
   inkscape:pageopacity="0.0"
   inkscape:pagecheckerboard="0"
   inkscape:deskcolor="#d1d1d1"
   showgrid="false"
   inkscape:zoom="0.69790483"
   inkscape:cx="202.74971"
   inkscape:cy="475.70956"
   inkscape:window-width="1392"
   inkscape:window-height="1205"
   inkscape:window-x="0"
   inkscape:window-y="25"
   inkscape:window-maximized="0"
   inkscape:current-layer="svg30" />
<style
   type="text/css"
   id="style2">
	.st0{clip-path:url(#SVGID_00000123432017680589759200000012881446689892827583_);}
	.st1{fill:#FFFFFF;}
	.st2{fill:#C3DCDC;}
	.st3{fill:#274247;}
</style>
<g
   id="Layer_1">
	<g
   id="g22">
		<defs
   id="defs5">
			<rect
   id="SVGID_1_"
   width="712"
   height="951"
   x="0"
   y="0" />
		</defs>
		<clipPath
   id="SVGID_00000037651898846642828000000004437973834924438153_">
			<use
   xlink:href="#SVGID_1_"
   style="overflow:visible"
   id="use7" />
		</clipPath>
		<g
   clip-path="url(#SVGID_00000037651898846642828000000004437973834924438153_)"
   id="g20">
			<path
   class="st1"
   d="M 418.2,504.3 H 265.3 c -6,0 -11.6,3.2 -14.6,8.4 l -76.3,132.2 c -3,5.3 -3,11.8 0,16.9 L 201.9,709.5 462.6,559 432.8,512.6 c -3,-5.1 -8.6,-8.3 -14.6,-8.3 z"
   id="path10" />
			<path
   class="st1"
   d="M 3,645.1 375,4.6 c 3.7,-6.7 13.5,-6.7 17.4,0 l 71.9,124.8 c 3,5.3 3,11.8 0,16.9 l -122.2,210.2 161.6,-0.7 c 6,0 11.6,3.2 14.6,8.3 L 591.5,484.5 658.4,445.9 305.1,-166 -335,203.5 18.3,815.5 73.3,783.8 3,662 C 0,656.7 0,650.2 3,645.1 Z"
   id="path12" />
			<path
   class="st2"
   d="m 502.8,621.6 c 3,5.1 8.6,8.3 14.6,8.3 h 132.4 c 13,0 21.1,-13.9 14.6,-25.3 L 591.4,484.5 462.6,559 Z"
   id="path14" />
			<path
   class="st2"
   d="M 650.3,672.2 H 517.9 c -6,0 -11.6,3.2 -14.6,8.4 L 432.8,794 c -3,5.1 -8.6,8.3 -14.6,8.3 H 265.3 c -6,0 -11.6,-3.2 -14.6,-8.3 L 202,709.5 73.3,783.8 165.1,942.9 c 3,5.1 8.6,8.3 14.6,8.3 H 504 c 6,0 11.6,-3.2 14.6,-8.3 L 664.9,697.5 c 6.5,-11.4 -1.6,-25.3 -14.6,-25.3 z"
   id="path16" />
			<path
   class="st3"
   d="m 174.4,661.8 c -3,-5.1 -3,-11.6 0,-16.9 l 76.3,-132.2 c 3,-5.1 8.6,-8.4 14.6,-8.4 h 152.8 c 6,0 11.6,3.2 14.6,8.4 l 29.8,46.4 128.9,-74.4 -73.2,-120.4 c -3,-5.1 -8.6,-8.3 -14.6,-8.3 L 342,356.7 464.2,146.6 c 3,-5.1 3,-11.6 0,-16.9 L 392.4,4.6 c -3.9,-6.7 -13.7,-6.7 -17.4,0 L 3,645.1 C 0,650.2 0,656.7 3,662 L 73.3,783.8 202,709.5 Z"
   id="path18" />
		</g>
	</g>
</g>
<g
   id="Layer_2">
	<path
   class="st3"
   d="m 76.8,442.6 c -2.1,3.9 -7.9,1.9 -7.2,-2.6 L 161.7,21.3 c 1.2,-5.6 8.3,-7.7 12.1,-3 l 73.3,87 c 3.2,3.9 3.9,9.3 1.6,13.9 z"
   id="path25" />
	<path
   class="st3"
   d="m 11.8,534.4 c -1.4,6.5 -10.9,5.3 -10.9,-1.2 V 143.6 c 0,-5.1 6,-7.7 9.7,-4.4 L 76,197.9 c 3,2.8 4.4,7 3.7,11.1 z"
   id="path27" />
</g>
</svg>
