<?xml version="1.0" encoding="UTF-8" standalone="no"?>
<!-- Generator: Adobe Illustrator 22.1.0, SVG Export Plug-In . SVG Version: 6.00 Build 0)  -->

<svg
   version="1.1"
   id="Layer_1"
   x="0px"
   y="0px"
   viewBox="0 0 571.20001 571.20001"
   xml:space="preserve"
   sodipodi:docname="nais-v2-blue-circle.svg"
   width="571.20001"
   height="571.20001"
   inkscape:version="1.4 (e7c3feb1, 2024-10-09)"
   xmlns:inkscape="http://www.inkscape.org/namespaces/inkscape"
   xmlns:sodipodi="http://sodipodi.sourceforge.net/DTD/sodipodi-0.dtd"
   xmlns="http://www.w3.org/2000/svg"
   xmlns:svg="http://www.w3.org/2000/svg"><defs
   id="defs3" /><sodipodi:namedview
   id="namedview3"
   pagecolor="#ffffff"
   bordercolor="#666666"
   borderopacity="1.0"
   inkscape:showpageshadow="2"
   inkscape:pageopacity="0.0"
   inkscape:pagecheckerboard="0"
   inkscape:deskcolor="#d1d1d1"
   inkscape:zoom="0.3776706"
   inkscape:cx="284.63958"
   inkscape:cy="319.06111"
   inkscape:window-width="1200"
   inkscape:window-height="1186"
   inkscape:window-x="0"
   inkscape:window-y="25"
   inkscape:window-maximized="0"
   inkscape:current-layer="Layer_1" />
<style
   type="text/css"
   id="style1">
	.st0{fill:#005B82;}
	.st1{fill:#FFFFFF;}
</style>
<circle
   class="st0"
   cx="285.60001"
   cy="285.60001"
   r="285.60001"
   id="circle1" />
<path
   class="st1"
   d="m 174.70001,254.8 c -0.9,1.7 -3.4,0.8 -3.1,-1.1 l 39.7,-180.5 c 0.5,-2.4 3.6,-3.3 5.2,-1.3 l 31.6,37.5 c 1.4,1.7 1.7,4 0.7,6 z"
   id="path1" />
<path
   class="st1"
   d="m 146.70001,294.4 c -0.6,2.8 -4.7,2.3 -4.7,-0.5 v -168 c 0,-2.2 2.6,-3.3 4.2,-1.9 l 28.2,25.3 c 1.3,1.2 1.9,3 1.6,4.8 z"
   id="path2" />
<path
   class="st1"
   d="m 422.00001,353.8 h -57.1 c -2.6,0 -5,1.4 -6.3,3.6 l -30.4,48.9 c -1.3,2.2 -3.7,3.6 -6.3,3.6 h -65.9 c -2.6,0 -5,-1.4 -6.3,-3.6 l -32.9,-57 c -1.3,-2.2 -1.3,-5 0,-7.3 l 32.9,-57 c 1.3,-2.2 3.7,-3.6 6.3,-3.6 h 65.9 c 2.6,0 5,1.4 6.3,3.6 l 30.2,47 c 1.3,2.2 3.7,3.6 6.3,3.6 h 57.1 c 5.6,0 9.1,-6 6.3,-10.9 l -63,-103.7 c -1.3,-2.2 -3.7,-3.6 -6.3,-3.6 l -69.7,0.3 52.7,-90.6 c 1.3,-2.2 1.3,-5 0,-7.3 l -31,-53.8 c -1.7,-2.9 -5.9,-2.9 -7.5,0 l -160.4,276.1 c -1.3,2.2 -1.3,5 0,7.3 l 69.9,121.1 c 1.3,2.2 3.7,3.6 6.3,3.6 h 139.8 c 2.6,0 5,-1.4 6.3,-3.6 l 63.1,-105.8 c 2.8,-4.9 -0.7,-10.9 -6.3,-10.9 z"
   id="path3" />
</svg>
