<?xml version="1.0" encoding="UTF-8" standalone="no"?>
<!-- Generator: Adobe Illustrator 23.0.1, SVG Export Plug-In . SVG Version: 6.00 Build 0)  -->

<svg
   version="1.1"
   id="Layer_1"
   x="0px"
   y="0px"
   width="450.5"
   height="96"
   viewBox="0 0 450.5 96"
   xml:space="preserve"
   sodipodi:docname="Nais io2.svg"
   inkscape:version="1.4 (e7c3feb1, 2024-10-09)"
   xmlns:inkscape="http://www.inkscape.org/namespaces/inkscape"
   xmlns:sodipodi="http://sodipodi.sourceforge.net/DTD/sodipodi-0.dtd"
   xmlns="http://www.w3.org/2000/svg"
   xmlns:svg="http://www.w3.org/2000/svg"><defs
   id="defs8" /><sodipodi:namedview
   id="namedview8"
   pagecolor="#ffffff"
   bordercolor="#666666"
   borderopacity="1.0"
   inkscape:showpageshadow="2"
   inkscape:pageopacity="0.0"
   inkscape:pagecheckerboard="0"
   inkscape:deskcolor="#d1d1d1"
   inkscape:zoom="0.13910317"
   inkscape:cx="226.45063"
   inkscape:cy="89.861363"
   inkscape:window-width="1200"
   inkscape:window-height="1186"
   inkscape:window-x="0"
   inkscape:window-y="25"
   inkscape:window-maximized="0"
   inkscape:current-layer="Layer_1" />
<style
   type="text/css"
   id="style1">
	.st0{fill:#FFFFFF;}
</style>
<path
   class="st0"
   d="M 54.7,78.1 12.9,3.2 C 12.4,2.3 11.4,1.7 10.4,1.7 H 2.9 C 1.3,1.7 0,3 0,4.6 v 86.8 c 0,1.6 1.3,2.9 2.9,2.9 h 5.3 c 1.6,0 2.9,-1.3 2.9,-2.9 V 18.6 l 41.8,74.3 c 0.5,0.9 1.5,1.5 2.5,1.5 h 7.5 c 1.6,0 2.9,-1.3 2.9,-2.9 V 4.7 c 0,-1.6 -1.3,-2.9 -2.9,-2.9 h -5.3 c -1.6,0 -2.9,1.3 -2.9,2.9 z"
   id="path1"
   style="fill:#000000" />
<path
   class="st0"
   d="m 131.2,14.3 h -0.6 c -1.3,4.8 -21,65.7 -24.8,78 -0.4,1.2 -1.5,2 -2.8,2 h -5.8 c -2,0 -3.4,-2 -2.8,-3.8 L 123.8,3.7 c 0.4,-1.2 1.5,-2 2.8,-2 h 9.1 c 1.2,0 2.4,0.8 2.8,2 l 29.4,86.8 c 0.6,1.9 -0.8,3.8 -2.8,3.8 h -6.4 c -1.3,0 -2.4,-0.8 -2.8,-2 -3.7,-12.3 -23.3,-73.2 -24.7,-78 z"
   id="path2"
   style="fill:#000000" />
<path
   class="st0"
   d="M 196.4,91.4 V 4.6 c 0,-1.6 1.3,-2.9 2.9,-2.9 h 5.9 c 1.6,0 2.9,1.3 2.9,2.9 v 86.8 c 0,1.6 -1.3,2.9 -2.9,2.9 h -5.9 c -1.6,0 -2.9,-1.3 -2.9,-2.9 z"
   id="path3"
   style="fill:#000000" />
<path
   class="st0"
   d="M 359.4,91.4 V 36.6 c 0,-1.6 1.3,-2.9 2.9,-2.9 h 5.9 c 1.6,0 2.9,1.3 2.9,2.9 v 54.8 c 0,1.6 -1.3,2.9 -2.9,2.9 h -5.9 c -1.6,0 -2.9,-1.3 -2.9,-2.9 z"
   id="path4"
   style="fill:#000000" />
<path
   class="st0"
   d="m 320.2,91.5 v -7.3 c 0,-1.6 1.3,-2.9 2.9,-2.9 h 5.9 c 1.6,0 2.9,1.3 2.9,2.9 v 7.3 c 0,1.6 -1.3,2.9 -2.9,2.9 h -5.9 c -1.6,0 -2.9,-1.3 -2.9,-2.9 z"
   id="path5"
   style="fill:#000000" />
<path
   class="st0"
   d="m 359.4,20.8 v -7.3 c 0,-1.6 1.3,-2.9 2.9,-2.9 h 5.9 c 1.6,0 2.9,1.3 2.9,2.9 v 7.3 c 0,1.6 -1.3,2.9 -2.9,2.9 h -5.9 c -1.6,0 -2.9,-1.3 -2.9,-2.9 z"
   id="path6"
   style="fill:#000000" />
<path
   class="st0"
   d="m 269.9,96 c -6.5,0 -12.5,-1.2 -18.1,-3.7 -4.7,-2.1 -8.8,-4.8 -12.5,-8.1 -1.1,-1 -1.2,-2.8 -0.2,-4 l 3.3,-3.8 c 1,-1.2 2.9,-1.4 4.1,-0.3 2.8,2.6 6,4.7 9.6,6.4 4.5,2.1 9.1,3.2 13.9,3.2 6.1,0 10.9,-1.4 14.3,-4.2 3.4,-2.8 5.1,-6.4 5.1,-10.9 0,-2.4 -0.4,-4.4 -1.2,-6 -0.8,-1.6 -1.9,-3.1 -3.2,-4.2 -1.4,-1.2 -3,-2.2 -4.9,-3.2 -1.9,-0.9 -3.9,-1.9 -6.1,-3 l -13.3,-5.8 c -2.2,-0.9 -4.4,-2.1 -6.6,-3.4 -2.3,-1.3 -4.3,-2.9 -6.1,-4.8 -1.8,-1.9 -3.2,-4.1 -4.4,-6.7 -1.1,-2.6 -1.7,-5.6 -1.7,-9 0,-3.5 0.7,-6.7 2.2,-9.7 1.5,-3 3.5,-5.6 6.1,-7.8 2.6,-2.2 5.6,-3.9 9.2,-5.2 3.5,-1.2 7.4,-1.8 11.6,-1.8 5.6,0 10.7,1.1 15.4,3.2 3.8,1.7 7.1,3.8 10,6.4 1.2,1 1.2,2.8 0.2,4 l -2.7,3.3 c -1,1.2 -2.8,1.3 -4,0.3 -2.2,-1.8 -4.6,-3.3 -7.2,-4.5 -3.4,-1.6 -7.3,-2.3 -11.6,-2.3 -5.2,0 -9.3,1.2 -12.5,3.6 -3.2,2.4 -4.7,5.7 -4.7,10 0,2.3 0.4,4.2 1.3,5.7 0.9,1.6 2.1,2.9 3.6,4.1 1.5,1.2 3.2,2.2 4.9,3.1 1.8,0.9 3.6,1.7 5.5,2.5 l 13.1,5.6 c 2.6,1.1 5.1,2.4 7.5,3.9 2.4,1.5 4.4,3.2 6.1,5.1 1.7,1.9 3,4.2 4,6.8 1,2.6 1.5,5.6 1.5,9 0,3.7 -0.7,7.1 -2.2,10.3 -1.5,3.2 -3.6,6 -6.3,8.4 -2.7,2.4 -6,4.3 -9.9,5.6 -3.8,1.2 -8.2,1.9 -13.1,1.9 z"
   id="path7"
   style="fill:#000000" />
<g
   id="g8"
   style="fill:#000000"
   transform="translate(-289.2,-298)">
	<path
   class="st0"
   d="m 711.3,393.6 c -3.8,0 -7.4,-0.7 -10.8,-2.2 -3.4,-1.4 -6.4,-3.5 -9,-6.3 -2.6,-2.7 -4.7,-6.1 -6.3,-10.1 -1.6,-4 -2.3,-8.5 -2.3,-13.6 0,-5.1 0.8,-9.7 2.3,-13.7 1.6,-4 3.6,-7.4 6.3,-10.2 2.6,-2.8 5.6,-4.9 9,-6.3 3.4,-1.4 7,-2.2 10.8,-2.2 3.8,0 7.4,0.7 10.8,2.2 3.4,1.4 6.4,3.5 9,6.3 2.6,2.8 4.7,6.2 6.3,10.2 1.6,4 2.3,8.6 2.3,13.7 0,5.1 -0.8,9.6 -2.3,13.6 -1.6,4 -3.6,7.4 -6.3,10.1 -2.6,2.7 -5.6,4.8 -9,6.3 -3.4,1.5 -7,2.2 -10.8,2.2 z m 0,-8.6 c 2.6,0 5,-0.6 7.2,-1.7 2.2,-1.1 4.1,-2.7 5.6,-4.8 1.6,-2.1 2.8,-4.5 3.6,-7.4 0.8,-2.9 1.3,-6.1 1.3,-9.6 0,-3.5 -0.4,-6.8 -1.3,-9.7 -0.8,-2.9 -2,-5.4 -3.6,-7.5 -1.6,-2.1 -3.4,-3.7 -5.6,-4.9 -2.2,-1.1 -4.6,-1.7 -7.2,-1.7 -2.6,0 -5,0.6 -7.2,1.7 -2.2,1.1 -4.1,2.8 -5.6,4.9 -1.6,2.1 -2.8,4.6 -3.6,7.5 -0.8,2.9 -1.3,6.1 -1.3,9.7 0,3.6 0.4,6.8 1.3,9.6 0.8,2.9 2,5.3 3.6,7.4 1.6,2.1 3.4,3.7 5.6,4.8 2.2,1.1 4.6,1.7 7.2,1.7 z"
   id="path8"
   style="fill:#000000" />
</g>
</svg>
