<?xml version="1.0" encoding="UTF-8" standalone="no"?>
<svg
   version="1.1"
   width="287.36047"
   height="410.27499"
   id="svg2"
   sodipodi:docname="nais-v2-atil.svg"
   inkscape:version="1.4 (e7c3feb1, 2024-10-09)"
   xmlns:inkscape="http://www.inkscape.org/namespaces/inkscape"
   xmlns:sodipodi="http://sodipodi.sourceforge.net/DTD/sodipodi-0.dtd"
   xmlns="http://www.w3.org/2000/svg"
   xmlns:svg="http://www.w3.org/2000/svg">
  <defs
     id="defs2" />
  <sodipodi:namedview
     id="namedview2"
     pagecolor="#ffffff"
     bordercolor="#666666"
     borderopacity="1.0"
     inkscape:showpageshadow="2"
     inkscape:pageopacity="0.0"
     inkscape:pagecheckerboard="0"
     inkscape:deskcolor="#d1d1d1"
     inkscape:zoom="0.23767765"
     inkscape:cx="-193.53944"
     inkscape:cy="204.05789"
     inkscape:window-width="1200"
     inkscape:window-height="1186"
     inkscape:window-x="0"
     inkscape:window-y="25"
     inkscape:window-maximized="0"
     inkscape:current-layer="svg1" />
  <svg
     xml:space="preserve"
     viewBox="0 0 287.36047 410.27499"
     version="1.1"
     id="svg1">
	<path
   fill="rgb(247, 104, 144)"
   d="M32.775 190.975c-.9 1.7-3.4.8-3.1-1.1l39.7-180.5c.5-2.4 3.6-3.3 5.2-1.3l31.6 37.5c1.4 1.7 1.7 4 .7 6zM4.775 230.575c-.6 2.8-4.7 2.3-4.7-.5v-168c0-2.2 2.6-3.3 4.2-1.9l28.2 25.3c1.3 1.2 1.9 3 1.6 4.8zM280.075 289.975h-57.1c-2.6 0-5 1.4-6.3 3.6l-30.4 48.9c-1.3 2.2-3.7 3.6-6.3 3.6h-65.9c-2.6 0-5-1.4-6.3-3.6l-32.9-57c-1.3-2.2-1.3-5 0-7.3l32.9-57c1.3-2.2 3.7-3.6 6.3-3.6h65.9c2.6 0 5 1.4 6.3 3.6l30.2 47c1.3 2.2 3.7 3.6 6.3 3.6h57.1c5.6 0 9.1-6 6.3-10.9l-63-103.7c-1.3-2.2-3.7-3.6-6.3-3.6l-69.7.3 52.7-90.6c1.3-2.2 1.3-5 0-7.3l-31-53.8c-1.7-2.9-5.9-2.9-7.5 0l-160.4 276.1c-1.3 2.2-1.3 5 0 7.3l69.9 121.1c1.3 2.2 3.7 3.6 6.3 3.6h139.8c2.6 0 5-1.4 6.3-3.6l63.1-105.8c2.8-4.9-.7-10.9-6.3-10.9z"
   id="path1"
   style="fill:#11c1b0;fill-opacity:1" />
</svg>
  <style
     id="style1">@media (prefers-color-scheme: light) { :root { filter: none; } }
@media (prefers-color-scheme: dark) { :root { filter: none; } }
</style>
</svg>
